<?xml version="1.0" standalone="no"?>
<!DOCTYPE svg PUBLIC "-//W3C//DTD SVG 20010904//EN"
 "http://www.w3.org/TR/2001/REC-SVG-20010904/DTD/svg10.dtd">
<svg version="1.0" xmlns="http://www.w3.org/2000/svg"
 width="980.000000pt" height="980.000000pt" viewBox="0 0 980.000000 980.000000"
 preserveAspectRatio="xMidYMid meet">
<metadata>
Created by potrace 1.14, written by Peter Selinger 2001-2017
</metadata>
<g transform="translate(0.000000,980.000000) scale(0.100000,-0.100000)"
fill="#000000" stroke="none">
<path d="M4560 9794 c-851 -75 -1506 -351 -2024 -854 -522 -506 -853 -1227
-950 -2071 -51 -437 -40 -750 40 -1104 236 -1054 1182 -2814 2613 -4860 318
-455 647 -905 661 -905 14 0 343 450 662 907 1297 1853 2216 3509 2531 4558
129 428 166 697 147 1071 -25 503 -110 920 -267 1319 -397 1005 -1169 1649
-2239 1870 -265 54 -403 67 -779 70 -192 1 -370 1 -395 -1z m540 -1124 c577
-72 1067 -399 1350 -902 150 -266 223 -547 223 -863 0 -321 -70 -590 -225
-866 -447 -796 -1423 -1126 -2253 -763 -560 245 -949 748 -1051 1359 -23 135
-23 405 0 540 132 785 741 1383 1516 1490 118 16 328 18 440 5z"/>
</g>
</svg>
